<svg width="100%" height="100%" id="svg" viewBox="0 0 1440 590" xmlns="http://www.w3.org/2000/svg" class="transition duration-300 ease-in-out delay-150"><path d="M 0,600 L 0,150 C 124.34449760765551,172.83253588516746 248.68899521531102,195.66507177033492 334,201 C 419.311004784689,206.33492822966508 465.5885167464114,194.17224880382773 546,188 C 626.4114832535886,181.82775119617227 740.9569377990431,181.64593301435406 845,170 C 949.0430622009569,158.35406698564594 1042.5837320574162,135.24401913875596 1140,130 C 1237.4162679425838,124.75598086124403 1338.7081339712918,137.37799043062202 1440,150 L 1440,600 L 0,600 Z" stroke="none" stroke-width="0" fill="#000000" fill-opacity="0.53" class="transition-all duration-300 ease-in-out delay-150 path-0"></path><path d="M 0,600 L 0,350 C 113.76076555023923,342.38277511961724 227.52153110047846,334.7655502392344 327,335 C 426.47846889952154,335.2344497607656 511.67464114832546,343.3205741626795 611,351 C 710.3253588516745,358.6794258373205 823.7799043062201,365.9521531100478 912,348 C 1000.2200956937799,330.0478468899522 1063.2057416267942,286.8708133971292 1147,283 C 1230.7942583732058,279.1291866028708 1335.3971291866028,314.56459330143537 1440,350 L 1440,600 L 0,600 Z" stroke="none" stroke-width="0" fill="#000000" fill-opacity="1" class="transition-all duration-300 ease-in-out delay-150 path-1"></path></svg>