<svg width="100%" height="100%" id="svg" viewBox="0 0 1440 590" xmlns="http://www.w3.org/2000/svg" class="transition duration-300 ease-in-out delay-150"><defs><linearGradient id="gradient" x1="0%" y1="50%" x2="100%" y2="50%"><stop offset="5%" stop-color="#F78DA7"></stop><stop offset="95%" stop-color="#8ED1FC"></stop></linearGradient></defs><path d="M 0,600 L 0,150 C 88.09569377990434,120.68899521531101 176.19138755980867,91.37799043062202 266,89 C 355.8086124401913,86.62200956937798 447.33014354066984,111.17703349282296 562,118 C 676.6698564593302,124.82296650717704 814.4880382775118,113.91387559808612 902,126 C 989.5119617224882,138.08612440191388 1026.7177033492824,173.16746411483254 1108,181 C 1189.2822966507176,188.83253588516746 1314.6411483253587,169.41626794258372 1440,150 L 1440,600 L 0,600 Z" stroke="none" stroke-width="0" fill="url(#gradient)" fill-opacity="0.53" class="transition-all duration-300 ease-in-out delay-150 path-0"></path><defs><linearGradient id="gradient" x1="0%" y1="50%" x2="100%" y2="50%"><stop offset="5%" stop-color="#F78DA7"></stop><stop offset="95%" stop-color="#8ED1FC"></stop></linearGradient></defs><path d="M 0,600 L 0,350 C 95.51196172248802,365.88516746411483 191.02392344497605,381.77033492822966 293,388 C 394.97607655502395,394.22966507177034 503.4162679425838,390.8038277511962 589,374 C 674.5837320574162,357.1961722488038 737.3110047846889,327.0143540669856 829,332 C 920.6889952153111,336.9856459330144 1041.3397129186603,377.1387559808613 1148,386 C 1254.6602870813397,394.8612440191387 1347.3301435406697,372.43062200956933 1440,350 L 1440,600 L 0,600 Z" stroke="none" stroke-width="0" fill="url(#gradient)" fill-opacity="1" class="transition-all duration-300 ease-in-out delay-150 path-1"></path></svg>